<?xml version="1.0" standalone="no"?>
<!DOCTYPE svg PUBLIC "-//W3C//DTD SVG 1.1//EN" "http://www.w3.org/Graphics/SVG/1.1/DTD/svg11.dtd" >
<svg xmlns="http://www.w3.org/2000/svg">
<metadata>
Created by FontForge 20120731 at Fri Dec 30 16:15:59 2016
 By admin
</metadata>
<defs>
<font id="D_iconfont" horiz-adv-x="1024" >
  <font-face 
    font-family="D_iconfont"
    font-weight="500"
    font-stretch="normal"
    units-per-em="1024"
    panose-1="2 0 6 3 0 0 0 0 0 0"
    ascent="896"
    descent="-128"
    x-height="792"
    bbox="-838 -1026 1846 1792"
    underline-thickness="0"
    underline-position="0"
    unicode-range="U+0078-E8D1"
  />
<missing-glyph 
 />
    <glyph glyph-name=".notdef" 
 />
    <glyph glyph-name=".notdef" 
 />
    <glyph glyph-name=".null" horiz-adv-x="0" 
 />
    <glyph glyph-name="nonmarkingreturn" horiz-adv-x="341" 
 />
    <glyph glyph-name="x" unicode="x" horiz-adv-x="1001" 
d="M281 543q-27 -1 -53 -1h-83q-18 0 -36.5 -6t-32.5 -18.5t-23 -32t-9 -45.5v-76h912v41q0 16 -0.5 30t-0.5 18q0 13 -5 29t-17 29.5t-31.5 22.5t-49.5 9h-133v-97h-438v97zM955 310v-52q0 -23 0.5 -52t0.5 -58t-10.5 -47.5t-26 -30t-33 -16t-31.5 -4.5q-14 -1 -29.5 -0.5
t-29.5 0.5h-32l-45 128h-439l-44 -128h-29h-34q-20 0 -45 1q-25 0 -41 9.5t-25.5 23t-13.5 29.5t-4 30v167h911zM163 247q-12 0 -21 -8.5t-9 -21.5t9 -21.5t21 -8.5q13 0 22 8.5t9 21.5t-9 21.5t-22 8.5zM316 123q-8 -26 -14 -48q-5 -19 -10.5 -37t-7.5 -25t-3 -15t1 -14.5
t9.5 -10.5t21.5 -4h37h67h81h80h64h36q23 0 34 12t2 38q-5 13 -9.5 30.5t-9.5 34.5q-5 19 -11 39h-368zM336 498v228q0 11 2.5 23t10 21.5t20.5 15.5t34 6h188q31 0 51.5 -14.5t20.5 -52.5v-227h-327z" />
    <glyph glyph-name="shezhi" unicode="&#xe600;" horiz-adv-x="1000" 
d="M941 508l-68 7q-11 37 -30 71l43 53q13 17 11 39t-18 38l-67 66q-18 19 -43 19q-19 0 -33 -12l-53 -42q-34 18 -72 29l-7 68q-2 21 -19 35t-40 14h-94q-23 0 -40 -14t-19 -35l-7 -68q-37 -11 -72 -29l-53 42q-14 12 -33 12q-25 0 -43 -19l-67 -66q-16 -16 -18 -38t11 -39
l43 -53q-18 -34 -30 -71l-67 -7q-21 -3 -35 -20t-14 -39v-95q0 -22 14 -39t35 -20l67 -7q12 -37 30 -71l-43 -53q-13 -16 -11 -38.5t18 -38.5l67 -66q18 -19 43 -19q19 0 33 12l53 42q35 -18 72 -29l7 -68q2 -21 19 -35t40 -14h94q23 0 40 14t19 35l7 68q38 11 72 29l53 -42
q14 -12 33 -12q25 0 43 19l67 66q16 16 18 38.5t-11 38.5l-43 53q19 34 30 71l68 7q20 3 34.5 20t14.5 39v95q0 22 -14.5 39t-34.5 20zM943 354q0 -4 -2.5 -8t-4.5 -4l-100 -11l-4 -15q-12 -48 -37 -90l-8 -14l63 -78q5 -5 -4 -14l-67 -66q-4 -5 -10 -5q-2 0 -4 1l-77 63
l-14 -9q-43 -25 -90 -37l-16 -4l-10 -99q0 -3 -4 -5t-9 -2h-94q-5 0 -8.5 2t-4.5 5l-10 99l-16 4q-47 12 -89 38l-14 8l-78 -63q-1 -1 -4 -1q-5 0 -10 5l-67 66q-8 9 -4 14l63 78l-8 14q-25 42 -37 90l-4 15l-100 11q-2 0 -4.5 4t-2.5 8v95q0 5 2.5 8.5t4.5 3.5l100 11l4 15
q12 48 37 90l8 14l-63 78q-4 5 4 14l67 67q5 4 10 4q3 0 4 -1l78 -63l14 9q42 25 89 37l16 4l10 99q1 3 4.5 5.5t8.5 2.5h94q5 0 9 -2.5t4 -5.5l10 -99l16 -4q47 -12 90 -37l14 -9l77 63q2 1 4 1q6 0 10 -4l67 -67q9 -9 4 -14l-63 -78l8 -14q25 -42 37 -90l4 -15l100 -11
q2 0 4.5 -3.5t2.5 -8.5v-95zM498 556q-64 0 -109 -45.5t-45 -109t45 -109t109 -45.5t109 45.5t45 109t-45 109t-109 45.5zM498.5 294q-44.5 0 -76.5 31.5t-32 76t32 76t76.5 31.5t76 -31.5t31.5 -76t-31.5 -76t-76 -31.5z" />
    <glyph glyph-name="sousuo" unicode="&#xe601;" horiz-adv-x="1000" 
d="M987 -39l-350 328q83 93 91 217q6 97 -36.5 183t-122 139.5t-177 59.5t-183 -36.5t-139 -122t-60 -177t36.5 -183t122.5 -139t176.5 -59.5q141 -10 250 79l352 -331q8 -7 21 7l13 13q13 14 5 22v0zM349.5 217.5q-84.5 5.5 -153.5 52t-106.5 121t-32 159t52 153.5t121 106
t159 31.5t153.5 -51.5t106 -120.5t31.5 -159.5t-51.5 -154t-120.5 -106t-159 -31.5z" />
    <glyph glyph-name="qq" unicode="&#xe606;" 
d="M308 405l-1 3l-1 4l-1 3v10l1 4l1 4l2 4l2 5l2 5l4 5v4v3v4l2 5l1 6l2 2l1 3l1 2l2 2v13l1 6l1 8l2 8l3 10l2 5l2 5l2 6l2 5l3 6l3 6l3 6l4 6l2 3l2 3l5 7l4 6l5 7l6 6l6 6l6 7l8 7l5 4l6 5l6 4l6 4l6 3l7 3l8 4l7 2l8 3l7 2l8 2l9 1l8 2l17 2l9 1h26l9 -1l9 -2h9l8 -2
l9 -2l9 -3l9 -2l8 -3l8 -3l8 -4l8 -4l8 -4l7 -5l7 -4l2 -3l4 -2l5 -5l5 -4l5 -5l5 -6l4 -5l5 -6l3 -6l4 -5l3 -6l3 -6l5 -11l3 -6l2 -5l1 -6l2 -6l1 -4l2 -6l3 -10l1 -9l1 -8l1 -7l2 -11v-1l2 -2l3 -5l2 -4l2 -4l2 -4l2 -5l2 -5l1 -5l1 -6l1 -3v-3v-3v-3v-4l-1 -3l-2 -7
l-1 -3l-2 -4v-1l1 -2l2 -2l7 -12l7 -9l3 -5l4 -7l3 -7l4 -7l4 -8l4 -10l3 -6l2 -5l2 -6l2 -6l2 -5l1 -5l2 -11l2 -10l1 -10v-13l-1 -4l-1 -8l-1 -8l-2 -6l-1 -3l-2 -3l-1 -2l-2 -3l-1 -2l-2 -2l-2 -2l-1 -2l-3 -1l-2 -1h-1h-3h-1l-3 2l-1 1l-2 1l-1 1l-2 2l-3 3l-3 4l-2 4
l-2 3l-3 4l-3 7l-4 7v1h-1l-1 -2l-1 -1l-2 -3l-2 -7l-4 -10l-5 -12l-4 -6l-3 -6l-5 -7l-5 -7l-2 -3l-3 -3l-7 -7v-1l1 -1l4 -2l14 -7l6 -3l6 -4l6 -4l6 -4l2 -2l2 -3l2 -2l2 -3l1 -3l1 -3v-2l1 -3l-1 -2v-2v-2l-1 -2l-1 -2l-1 -1l-2 -4l-3 -3l-2 -2l-1 -2l-4 -3l-5 -2l-5 -2
l-5 -3l-5 -2l-3 -1l-3 -1l-7 -1l-7 -2l-7 -1l-7 -1l-8 -1l-8 -1h-25l-9 1l-8 1l-9 1l-9 1l-9 1l-9 2l-9 2l-9 2l-9 4l-9 2l-4 2l-5 1l-2 1l-3 1h-7l-9 1h-4l-5 1l-4 -4l-5 -3l-6 -3l-8 -4l-4 -2l-5 -2l-10 -4l-5 -1l-6 -2l-8 -1l-5 -1h-6l-5 -1h-7h-26h-15l-15 2l-7 1l-14 2
l-7 1l-6 2l-7 2l-6 2l-5 2l-5 3l-5 2l-4 3l-1 2l-2 2l-2 2l-1 1l-1 2l-1 2l-2 4v2l-1 3v2l1 2v3v2v5v3l2 3l1 3l1 3l2 1l1 2l2 3l3 2l2 1l2 2l3 1l2 1l3 2l3 1l4 1l4 1h4l4 1h5l1 1h1v0v1l-1 1l-2 1l-7 6l-4 3l-5 5l-5 5l-5 6l-7 7l-2 4l-3 4l-2 4l-3 6l-3 4l-2 6l-2 5l-3 6
l-2 6l-1 7h-1v0l-1 1v0l-1 -1h-1v-1l-1 -1v-2l-1 -2l-3 -5l-2 -3l-2 -3l-3 -4l-2 -3l-4 -4l-3 -3l-3 -3l-4 -2l-4 -3l-4 -1l-4 -1l-5 -1h-1l-1 1l-1 1l-1 1l-2 5l-1 2l-1 3l-1 3v4l-2 7v5v14v11l1 5l1 6l1 6l2 6l2 7l2 6l2 7l3 6l3 6l3 7l4 7l5 7l4 6l5 7l4 5l5 6l5 5l3 3
l3 3l9 8l7 6l6 4zM511.5 -123q-103.5 0 -197.5 40q-91 39 -161.5 109t-108.5 161q-40 94 -40 197.5t40 197.5q38 91 108.5 161.5t161.5 108.5q94 40 197.5 40t197.5 -40q91 -38 161 -108.5t109 -161.5q40 -94 40 -197.5t-40 -197.5q-39 -91 -109 -161t-161 -109
q-94 -40 -197.5 -40zM511 863q-97 0 -185.5 -38t-152.5 -102t-102 -152.5t-38 -186t38 -186t102 -152.5t152.5 -102t185.5 -38t186 38t153 102t102 152.5t38 186t-38 186t-102 152.5t-153 102t-186 38z" />
    <glyph glyph-name="iconfuzhi01" unicode="&#xe602;" 
d="M394 352v8h-1l1 8v13v0q3 63 16 103l7 22l21 -6q80 -21 145 -22q1 4 3 9q8 3 17 11q6 7 13 18.5t9 32.5q2 15 -0.5 25.5t-6.5 17.5t-10 11q0 37 -5 75q-5 33 -16.5 69t-36.5 67q-10 13 -27 26.5t-39 24t-47 17t-53 6.5q-21 0 -44.5 -3.5t-46.5 -13t-44.5 -26.5t-40.5 -43
q-19 -28 -29 -62t-14 -64q-4 -36 -3 -72q-8 -10 -12 -20t-5.5 -22.5t3.5 -29t11 -25t12 -13.5q7 -5 14 -7q4 -15 9 -29q5 -13 10.5 -24.5t13.5 -18.5q16 -13 29.5 -25t15.5 -34q1 -16 1 -28t-5 -23.5t-15.5 -22.5t-30.5 -24q-25 -16 -58 -24.5t-63.5 -19t-53.5 -28.5
t-29 -53q-9 -61 -3.5 -100t14.5 -47q6 -5 27 -10.5t51 -11.5t67 -11.5t74.5 -10t73 -7t63 -2.5t65 2t77.5 7q14 2 32 4l-5 5q-29 24 -53.5 56t-47.5 80t-36.5 116t-13.5 149v0zM869 319q-67 0 -140 27q-72 -27 -139 -27q-64 0 -149 19q0 -248 135 -361q42 -35 86.5 -64
t66 -29t66.5 29t88 65q134 113 134 360q-86 -19 -148 -19zM803 39l-74 45l-74 -45l26 82l-63 58h81l30 75l30 -75h82l-63 -58zM724 370l4 2l5 -2q4 -2 20.5 -7t51.5 -12.5t64 -7.5q61 0 148 21q-1 25 -4.5 48t-6.5 34l-3 10q-80 -21 -144 -21q-28 0 -60.5 7t-51.5 14l-18 7
q-64 -28 -130 -28q-29 0 -65 5.5t-57 10.5l-21 5q-12 -35 -14 -93q85 -20 148 -20q68 0 134 27zM531 394z" />
    <glyph glyph-name="weibiaoti1" unicode="&#xe61d;" 
d="M514 -120q-103 0 -196.5 40.5t-161.5 108.5t-108 161.5t-40 196.5t40 197t108 161.5t161.5 108t196.5 40.5t197 -40.5t162 -108t108 -161.5t40 -197t-40 -196.5t-108 -161.5t-162 -108.5t-197 -40.5zM514.5 867q-97.5 0 -186.5 -38t-153 -102.5t-102 -153t-38 -186
t38 -186.5t102 -153.5t153 -102.5t186.5 -38t186 38t153 102.5t102.5 153.5t38 186.5t-38 186t-102.5 153t-153 102.5t-186 38zM391 112l-19 19l259 258l-261 261l19 19l280 -280z" />
    <glyph glyph-name="weixin" unicode="&#xe675;" 
d="M513 -123q-103 0 -197 40.5t-162.5 108.5t-108.5 162t-40 197t40 197t108.5 162t162.5 108.5t197 40.5t197 -40.5t162 -108.5t108.5 -162t40.5 -197t-40.5 -197t-108.5 -162t-162 -108.5t-197 -40.5zM513 874q-99 0 -189.5 -39t-156 -104.5t-104.5 -156t-39 -189.5
t39 -189.5t104.5 -156t156 -104t189.5 -38.5t189.5 38.5t156 104t104 156t38.5 189.5t-38.5 189.5t-104 156t-156 104.5t-189.5 39zM629 460q11 0 24 -2q-16 74 -86.5 123t-161.5 49q-101 0 -173 -60.5t-72 -147.5q0 -97 98 -166l-24 -73l86 43q62 -13 85 -13q11 0 23 1
q-7 26 -7 52q0 80 60.5 137t147.5 57zM497 526q14 0 22.5 -8.5t8.5 -22t-8.5 -22t-22.5 -8.5t-25 8.5t-11 22t11 22t25 8.5zM326 465q-15 0 -26 8.5t-11 22t11 22t26 8.5q14 0 22 -8.5t8 -22t-8 -22t-22 -8.5zM853 269q0 73 -62.5 125.5t-145.5 52.5q-88 0 -148.5 -52.5
t-60.5 -126t60.5 -125.5t148.5 -52q24 0 73 12l67 -37l-18 61q86 65 86 142zM577 299q-9 0 -16.5 8t-7.5 17t7.5 16.5t16.5 7.5q13 0 22 -7.5t9 -17t-9 -17t-22 -7.5zM712 299q-9 0 -16.5 8t-7.5 17t7.5 16.5t16.5 7.5q13 0 22 -7.5t9 -17t-9 -17t-22 -7.5z" />
    <glyph glyph-name="xuanze" unicode="&#xe61e;" 
d="M511 895q-103 0 -196.5 -40t-161.5 -108t-108 -161.5t-40 -196.5t40 -197t108 -162t161.5 -108t196.5 -40t197 40t161.5 108t108 162t40.5 197t-40.5 196.5t-108 161.5t-161.5 108t-197 40zM789 610l-262 -455q0 -1 -0.5 -2l-0.5 -1q-15 -25 -44 -22q-9 1 -17 6
q-1 0 -2.5 1.5t-1.5 2.5l-168 128q-16 9 -20.5 26.5t4.5 33.5t26.5 20.5t33.5 -4.5l137 -105l239 415q9 15 27 20t33.5 -4t20 -27t-4.5 -33z" />
    <glyph glyph-name="gouwuche" unicode="&#xe653;" 
d="M856 278l160 366q6 14 -2 26.5t-23 12.5h-681l-25 115q-2 9 -10 15.5t-17 6.5h-224q-12 0 -20 -8.5t-8 -20t8 -20t20 -8.5h201l128 -593q-35 -10 -57.5 -39t-22.5 -66q0 -45 32.5 -77.5t77.5 -32.5t77 32.5t32 77.5q0 28 -14 54h218q-15 -26 -15 -54q0 -45 32 -77.5
t77.5 -32.5t77.5 32.5t32 77.5t-32 77t-77 32h-4h-3h-375v1.5v1.5l-18 84h430q18 0 25 17zM393 -2q-28 0 -47.5 19.5t-19.5 47.5t19.5 47.5t47.5 19.5t47.5 -19.5t19.5 -47.5t-19.5 -47.5t-47.5 -19.5zM868 65q0 -28 -20 -47.5t-47.5 -19.5t-47.5 19.5t-20 47.5t20 47.5
t47.5 19.5t47.5 -19.5t20 -47.5zM394 317l-72 310h626l-136 -310h-418z" />
    <glyph glyph-name="bianji" unicode="&#xe60d;" 
d="M803 -212h-659q-46 0 -78 32t-32 78v733q0 46 32 78t78 32h513q22 0 31 -18.5t0 -36.5t-31 -18h-513q-15 0 -26 -11t-11 -26v-733q0 -15 11 -26t26 -11h659q15 0 26 11t11 26v586q0 23 18.5 32t36.5 0t18 -32v-586q0 -46 -32 -78t-78 -32v0zM562 385q-23 26 0 52l364 365
q11 10 26 10t27 -10q19 -21 5 -45l-5 -8l-364 -364q-12 -11 -27 -11t-26 11v0zM437 374h-220q-22 0 -31 18.5t0 37t31 18.5h220v-74v0zM657 155h-440q-22 0 -31 18t0 36.5t31 18.5h440q22 0 31 -18.5t0 -36.5t-31 -18z" />
    <glyph glyph-name="youxiang" unicode="&#xe62f;" 
d="M516 -124q-103 0 -197 40.5t-162 108.5t-108.5 162.5t-40.5 197.5t40.5 197.5t108.5 162.5t162 108.5t197 40.5t197 -40.5t162 -108.5t108.5 -162.5t40.5 -197.5t-40.5 -197.5t-108.5 -162.5t-162 -108.5t-197 -40.5zM516 844q-93 0 -178 -36t-146 -97.5t-97.5 -146.5
t-36.5 -178.5t36.5 -178.5t97.5 -146.5t146 -98t178 -36.5t178 36.5t146 98t97.5 146.5t36.5 178t-36.5 178t-98 146.5t-146 98t-177.5 36.5zM806 148h-565q-24 0 -40.5 17t-16.5 41v358q0 24 16.5 41.5t40.5 17.5h565q23 0 40 -17.5t17 -41.5v-358q0 -24 -17 -41t-40 -17z
M791 190l-177 162l-29 -27q-25 -23 -61.5 -23t-62.5 23l-29 27l-176 -162h535zM226 543v-324l176 164zM254 581l226 -207q29 -27 43 -27t44 27l225 207h-538zM820 543l-176 -160l176 -164v324z" />
    <glyph glyph-name="pinglun" unicode="&#xe655;" 
d="M512 2q-47 0 -95 8l-224 -135v226q-89 62 -140 153t-51 195q0 91 40 173.5t108.5 142.5t163 95t198.5 35t198.5 -35t162.5 -95t108.5 -142.5t40.5 -173.5t-40.5 -173.5t-108.5 -142.5t-162.5 -95.5t-198.5 -35.5zM512 832q-121 0 -224 -51.5t-163 -139.5t-60 -192
q0 -96 51.5 -178t139.5 -135l-2 -148l150 90q55 -12 108 -12q121 0 224 51.5t163 139.5t60 192t-60 192t-163 139.5t-224 51.5zM767.5 385q-26.5 0 -45.5 19t-19 45t19 45t45.5 19t45 -19t18.5 -45t-18.5 -45t-45 -19zM512 385q-26 0 -45 19t-19 45t19 45t45 19t45 -19
t19 -45t-19 -45t-45 -19zM256.5 385q-26.5 0 -45 19t-18.5 45t18.5 45t45 19t45.5 -19t19 -45t-19 -45t-45.5 -19z" />
    <glyph glyph-name="baobeixijie" unicode="&#xe609;" 
d="M512 807q-103 0 -197 -40t-162 -108t-108 -162t-40 -197t40 -197t108 -162t162 -108t197 -40q100 0 190.5 37t159.5 104l-2 2q1 4 1 8q0 8 -6 14t-14 6q-13 0 -18 -11q-63 -56 -143 -87.5t-168 -31.5q-95 0 -181 37t-148.5 99.5t-99.5 148.5t-37 181t37 181t99.5 148.5
t148.5 99.5t181 37t181 -37t148.5 -99.5t99.5 -148.5t37 -181q0 -124 -62 -231q-7 -6 -7 -16q0 -8 6 -14t14.5 -6t14.5 6l2 -1q73 120 73 262q0 103 -40 197t-108 162t-162 108t-197 40zM505 427q0 47 -33 80t-80 33t-80 -33t-33 -80t33 -80t80 -33t80 33t33 80zM315 427
q0 32 22.5 54.5t54.5 22.5t54.5 -22.5t22.5 -54.5t-22.5 -55t-54.5 -23t-54.5 23t-22.5 55zM432 97l15 -16l1 1l1 -1l223 222l118 -126l30 29l-118 126v1l-31 30l-222 -222l-63 67l1 2l-31 30l-150 -157l31 -30l119 125l63 -67h-1z" />
    <glyph glyph-name="fenlei" unicode="&#xe6ee;" 
d="M459.5 373q27.5 -53 72.5 -91t98 -55t112 -13t112 31t90.5 72.5t54.5 98.5t13 112t-31 112t-72.5 90.5t-98 54.5t-111.5 13t-112 -31t-91 -72.5t-55 -98t-13 -111.5t31.5 -112zM610 721.5q89 45.5 184.5 15t141 -120t15 -184.5t-120 -141t-184.5 -15t-141 120t-15 184.5
t120 141zM1013 21l-82 162q-7 14 -21.5 18.5t-27.5 -2.5l-9 -4q-13 -7 -17.5 -21.5t2.5 -27.5l82 -162q7 -13 21.5 -18t27.5 2l9 5q13 6 17.5 20.5t-2.5 27.5zM40 740h396q11 0 19.5 8.5t8.5 20.5t-8.5 20.5t-19.5 8.5h-396q-12 0 -20.5 -8.5t-8.5 -20.5t8.5 -20.5
t20.5 -8.5zM40 482h293q12 0 20.5 8.5t8.5 20.5t-8.5 20.5t-20.5 8.5h-293q-12 0 -20.5 -8.5t-8.5 -20.5t8.5 -20.5t20.5 -8.5zM40 224h378q12 0 20.5 8t8.5 20t-8.5 20.5t-20.5 8.5h-378q-12 0 -20.5 -8.5t-8.5 -20.5t8.5 -20t20.5 -8zM817 20h-779q-11 0 -19 -7.5
t-8 -18.5t8 -19t19 -8h779q11 0 19 8t8 19t-8 18.5t-19 7.5z" />
    <glyph glyph-name="dingdan" unicode="&#xe613;" 
d="M258 574h508q9 0 16 6.5t7 16.5t-7 16.5t-16 6.5h-508q-9 0 -16 -6.5t-7 -16.5t7 -16.5t16 -6.5zM258 435h508q9 0 16 7t7 16.5t-7 16.5t-16 7h-508q-9 0 -16 -7t-7 -16.5t7 -16.5t16 -7zM258 297h508q9 0 16 7t7 16.5t-7 16t-16 6.5h-508q-9 0 -16 -6.5t-7 -16t7 -16.5
t16 -7zM258 159h508q9 0 16 6.5t7 16t-7 16.5t-16 7h-508q-9 0 -16 -7t-7 -16.5t7 -16t16 -6.5zM347 818v0v0v0zM729 818v0v0zM858 897h-692q-29 0 -49 -20.5t-20 -48.5v-849q0 -29 20 -49t49 -20h425q21 -1 49.5 -6.5t43.5 -17.5q5 -4 12 -4q9 0 15 7q5 6 4 13.5t-7 12.5
q-39 32 -117 33h-425q-13 0 -22 9t-9 22v849q0 13 9 22t22 9h168v-1q35 -3 49 -34q2 -10 6.5 -19.5t20 -23.5t36.5 -17l1 -1h186l2 1q21 3 36 17t20 23.5t7 19.5q13 30 49 34v1h111q13 0 22 -9t9 -22v-849q0 -13 -9 -22t-22 -9h-93q-8 0 -13.5 -5.5t-5.5 -13.5t5.5 -13.5
t13.5 -5.5h93q29 0 49.5 20t20.5 49v849q-1 28 -21 48.5t-49 20.5zM662 837l-1 -2v-2q-1 -2 -2.5 -7t-9.5 -13.5t-19 -11.5h-179q-25 6 -31 32l-1 2v2q-5 12 -13 22h269q-8 -10 -13 -22z" />
    <glyph glyph-name="baogao" unicode="&#xe660;" 
d="M224 12h511v64h-511v-64zM735 236h-511v-64h511v64zM864 -148h-736v864h516l64 64h-644v-992h864v784l-64 -70v-650v0zM512 364h117l211 211l-114 118l-214 -213v-116zM960 694l-114 118l-67 -66l114 -119z" />
    <glyph glyph-name="xuanze1" unicode="&#xe625;" 
d="M511.5 -125q-103.5 0 -197.5 40.5t-162.5 108.5t-109 162.5t-40.5 198t40.5 197.5t109 162.5t162.5 109t197.5 40.5t198 -40.5t162.5 -109t108.5 -162.5t40.5 -197.5t-40.5 -198t-108.5 -162.5t-162.5 -108.5t-198 -40.5zM511.5 845q-93.5 0 -179 -36.5t-147 -98
t-98 -147t-36.5 -179t36.5 -179t98 -147t147 -98t179 -36.5t179 36.5t147 98t98 147t36.5 179t-36.5 179t-98 147t-147 98t-179 36.5z" />
    <glyph glyph-name="kefu" unicode="&#xe6ef;" 
d="M533 896q27 -3 29 -3q97 -10 178 -58q163 -97 212 -278q15 -54 15 -113v-58v-58q0 -27 -12 -53q-1 -2 -7 -21q-35 -120 -128 -205.5t-216 -110.5q-15 -3 -34 -5q-5 -1 -7 -6q-10 -26 -33 -41t-51 -14q-27 1 -49 19t-29 44q-8 32 7 61.5t46 41t61.5 -1t44.5 -42.5
q3 -5 9 -4q206 34 302 221l2 4q-12 -1 -13 -1q-49 -3 -84.5 30.5t-35.5 82.5v113q0 50 35.5 83.5t84.5 30.5q2 0 32 -6l3 -1q-13 54 -45.5 105t-79 92.5t-111.5 67t-137 27.5q-74 2 -141.5 -22t-117.5 -65t-84.5 -94t-49.5 -111q22 6 23 6q45 8 84 -19.5t47 -71.5
q1 -12 2 -23v-111q-1 -41 -26 -72.5t-65 -39.5q-47 -10 -87 17t-48 74q-2 11 -2 20v119q6 219 177 355q86 68 199 88q2 0 53 6l5 1h42zM228 384v56q0 24 -16.5 41t-40.5 17t-40.5 -17t-16.5 -41v-112q0 -7 1 -13q5 -21 22.5 -34t38.5 -11q23 3 37.5 19t14.5 38v57zM797 384
v-56t1 -14q5 -21 22.5 -33.5t38.5 -10.5q23 3 37 19t14 38v114q0 6 -1 13q-5 21 -22.5 33.5t-38.5 10.5q-22 -3 -36.5 -19t-14.5 -38v-57z" />
    <glyph glyph-name="dianzan" unicode="&#xe608;" 
d="M997 483q-30 35 -90 35h-176q-61 0 -81 9q41 73 41 160t-33 147q-35 60 -85 60h-4q-46 7 -71 -18q-22 -22 -19 -65q5 -52 -13 -101.5t-43.5 -81.5t-62 -61.5t-55.5 -40.5t-38 -20q-8 8 -20 8h-204q-12 0 -21.5 -9.5t-9.5 -21.5v-571q0 -13 9.5 -22t21.5 -9h206q10 0 23 8
q2 -6 8 -8q368 2 492 2q26 0 49 12.5t40.5 31t34 51t27.5 60t23 71.5t19 71.5t17 73.5q15 68 25 100q22 87 -10 129v0zM215 -57h-143v509h143v-509zM945 371q-12 -41 -25 -104q-10 -42 -16.5 -69.5t-18.5 -70.5t-23.5 -71t-25.5 -56.5t-31 -42.5t-35 -14q-72 0 -281 -1
t-211 -1v500q6 0 10 2l19 9.5t40 23t53 37.5t54.5 53t49 67.5t31.5 83t7 98.5v15q2 2 20 2h9v0q6 0 14.5 -8t14.5 -21q17 -32 23 -76t-2.5 -92.5t-31.5 -82.5q-18 -27 -6 -57q13 -21 46.5 -31t97.5 -10h178q29 0 38 -10q19 -14 2 -73v0z" />
    <glyph glyph-name="jiarugouwuche" unicode="&#xe616;" horiz-adv-x="1025" 
d="M787.5 886q-94.5 0 -161 -64.5t-66.5 -155.5t66.5 -155t161 -64t161 64t66.5 155t-66.5 155.5t-161 64.5zM787.5 497q-72.5 0 -124 49.5t-51.5 120t51.5 120t124 49.5t124 -49.5t51.5 -120t-51.5 -120t-124 -49.5zM860 64h-6h-448l-21 76l378 28q11 1 18.5 8.5t6.5 18.5
l34 209q-17 -3 -35 -3q-10 0 -20 1l-30 -183l-366 -28l-96 355h280q-13 25 -20 53h-272h-2l-33 120q0 10 -8 17.5t-19 7.5h-166q-12 0 -20 -7.5t-8 -18.5t8 -18.5t20 -7.5h145l170 -628h-51h-5h-10q-39 0 -67 -27t-28 -65t28 -65t67 -27t67 27t28 65q0 22 -10 42h12h7h377
q-11 -20 -11 -42q0 -38 28 -65t67.5 -27t67.5 27t28 65q0 36 -24.5 62t-60.5 30v0zM283.5 -78q-21.5 0 -36.5 14.5t-15 35.5t15 35.5t36.5 14.5t37 -14.5t15.5 -35.5t-15.5 -35.5t-37 -14.5zM849.5 -78q-21.5 0 -36.5 14.5t-15 35.5t15 35.5t36.5 14.5t36.5 -14.5t15 -35.5
t-15 -35.5t-36.5 -14.5zM903 690h-91v88q0 7 -4.5 11.5t-11.5 4.5h-17q-7 0 -11.5 -4.5t-4.5 -11.5v-88h-91q-7 0 -11.5 -4.5t-4.5 -11.5v-16q0 -6 4.5 -11t11.5 -5h91v-87q0 -7 4.5 -11.5t11.5 -4.5h17q7 0 11.5 4.5t4.5 11.5v87h91q7 0 11.5 5t4.5 11v16q0 7 -4.5 11.5
t-11.5 4.5z" />
    <glyph glyph-name="weibo" unicode="&#xe603;" 
d="M445 221q-76 -3 -129 30t-53 83t53 86.5t129 39.5q77 4 130 -25t53 -79q0 -51 -54 -91.5t-129 -43.5zM660 440q-11 2 -14 6.5t-1 7.5l3 3q2 5 5.5 12t2.5 25t-13 30q-20 15 -46.5 14t-49.5 -9l-23 -9q-22 -7 -24 1.5t4 27.5q0 11 -1.5 19.5t-7.5 18.5t-15.5 15.5t-28 5
t-43.5 -8.5q-24 -9 -49 -25.5t-44 -34.5t-34.5 -34.5t-23.5 -27.5l-8 -11q-23 -30 -34.5 -60.5t-10.5 -45.5v-15q5 -42 27.5 -72.5t58.5 -47.5t71.5 -25.5t76.5 -11.5q82 -6 166 27.5t114 96.5q12 25 12 46.5t-7.5 35t-20 24t-23 15.5t-19.5 7zM459 334q-11 -9 -17 1
q-7 11 4 19q12 10 19 -1q6 -10 -6 -19zM399.5 282.5q-14.5 -1.5 -24.5 5.5t-10 19t9.5 22.5t23.5 11.5q16 2 26 -6t10 -20t-10 -21.5t-24.5 -11zM425 416q-90 -11 -90 -107q0 -3 0.5 -8.5t7.5 -18t19 -18.5q46 -23 86.5 -14t65.5 41q12 15 13 38t-7.5 44t-33.5 34t-61 9z
M709 481q15 0 17 14v2q3 31 -5 52t-22 28.5t-28.5 11t-25.5 1.5l-10 -1q-7 0 -12 -5t-5 -12t5 -11.5t12 -4.5q22 4 34.5 0t17.5 -13.5t6.5 -19.5t0.5 -18l-1 -7q0 -7 4.5 -12t11.5 -5zM697 675q-35 9 -83 0l-1 -0.5l-1 -0.5l-1 -1q-17 -5 -17 -23q0 -10 7 -17t17 -7
q13 1 22 5q7 3 26.5 0.5t48 -17.5t45.5 -43q18 -41 7 -80q-5 -12 -5 -23q0 -10 7 -16t17.5 -6t16 4t7.5 16v0q12 51 8 87t-25.5 62t-45 40t-50.5 20zM512 895q-101 0 -192.5 -39.5t-158 -106t-106 -158t-39.5 -192.5t39.5 -192.5t106 -158t158 -105.5t192.5 -39t192.5 39
t158 105.5t106 158t39.5 192.5t-39.5 192.5t-106 158t-158 106t-192.5 39.5zM511 868q95 0 182 -37t149.5 -100t99.5 -149.5t37 -181.5t-37 -182t-99.5 -149.5t-149.5 -99.5t-182 -37t-181.5 37t-149.5 99.5t-100 149.5t-37 182t37 181.5t100 149.5t149.5 100t181.5 37v0z
" />
    <glyph glyph-name="iconset0455" unicode="&#xe74e;" 
d="M512 885q-102 0 -195 -39.5t-160 -106.5t-106.5 -160t-39.5 -195t39.5 -195t106.5 -160t160 -106.5t195 -39.5t195 39.5t160 106.5t106.5 160t39.5 195t-39.5 195t-106.5 160t-160 106.5t-195 39.5zM512 -71q-92 0 -176.5 36t-145.5 97t-97 145.5t-36 176.5t36 176.5
t97 145.5t145.5 97t176.5 36t176.5 -36t145.5 -97t97 -145.5t36 -176.5t-36 -176.5t-97 -145.5t-145.5 -97t-176.5 -36zM444 247q-29 0 -49 -19.5t-20 -48.5t20 -48.5t49 -19.5t48.5 19.5t19.5 48.5t-19.5 48.5t-48.5 19.5zM443.5 156q-10.5 0 -16.5 6.5t-6 16.5t6 16.5
t16.5 6.5t16.5 -6.5t6 -16.5t-6 -16.5t-16.5 -6.5zM239 338q-19 0 -32.5 -13t-13.5 -32t13.5 -32.5t32.5 -13.5t32 13.5t13 32.5t-13 32t-32 13zM785.5 475q-37.5 0 -64.5 -26.5t-27 -64.5t27 -64.5t64.5 -26.5t64 26.5t26.5 64.5t-26.5 64.5t-64 26.5zM785 338
q-19 0 -32 13.5t-13 32.5t13 32.5t32 13.5t32.5 -13.5t13.5 -32.5t-13.5 -32.5t-32.5 -13.5zM671.5 111q-10.5 0 -16.5 -6.5t-6 -16.5t6 -16.5t16.5 -6.5t16.5 6.5t6 16.5t-6 16.5t-16.5 6.5zM375.5 703q-56.5 0 -96.5 -40.5t-40 -96.5t40 -96t96.5 -40t96.5 40t40 96
t-40 96.5t-96.5 40.5zM375.5 475q-37.5 0 -64.5 26.5t-27 64.5t27 64.5t64.5 26.5t64 -26.5t26.5 -64.5t-26.5 -64.5t-64 -26.5zM580.5 384q-10.5 0 -16.5 -6.5t-6 -16.5t6 -16.5t16.5 -6.5t16.5 6.5t6 16.5t-6 16.5t-16.5 6.5z" />
    <glyph glyph-name="gengduo" unicode="&#xe683;" 
d="M795 408q-479 479 -480 478q-9 10 -22 10t-22.5 -9.5t-9.5 -23t9 -21.5l456 -458l-456 -458q-9 -9 -9 -22.5t9 -21.5q10 -9 22.5 -9.5t22.5 9.5q479 476 480 478q10 10 10 24t-10 24z" />
    <glyph glyph-name="iconfontxiaoxi1" unicode="&#xe64b;" 
d="M897 308v120q0 126 -81 224t-207 128v2q0 43 -28 73t-67.5 30t-67.5 -30t-28 -73v-2q-125 -31 -205.5 -129t-80.5 -223v-99v0q1 -34 -9 -62t-24 -47t-28.5 -35t-24.5 -33t-10 -35q0 -47 33 -69.5t87 -22.5h166q2 -59 58 -101t134.5 -42t134 42t57.5 101h167q53 0 86 22.5
t33 69.5q0 20 -13.5 41.5t-30.5 38t-32.5 46.5t-18.5 65zM514.5 -70q-59.5 0 -101.5 27.5t-42 66.5v1h287v-1q0 -39 -42 -66.5t-101.5 -27.5zM944 113q-2 -21 -23.5 -30.5t-45.5 -9.5h-721q-20 -3 -45 7.5t-25 32.5v8q0 10 12.5 23.5t27.5 28.5t31.5 44.5t23.5 65.5v46v0v91
q0 121 82 212t205 108v40q0 24 14 41t33.5 17t33.5 -17t14 -41v-40q123 -17 205.5 -108t82.5 -212v-91v0v-42v0q0 -26 15 -54t32.5 -47t32.5 -36.5t15 -24.5v-12v0zM1577 229h-1v278q0 175 -60.5 338t-167 291.5t-255 222.5t-320.5 136v7q0 120 -78.5 205t-190 85t-190 -85
t-78.5 -205v-6q-172 -42 -321.5 -135.5t-256.5 -222.5t-168 -292.5t-61 -338.5v-338q-5 -59 -22.5 -111.5t-41 -91.5t-51.5 -74.5t-54.5 -66t-48.5 -60t-35.5 -63t-13.5 -68.5q0 -68 26 -118.5t72.5 -80.5t105.5 -44.5t131 -14.5h467q4 -109 76.5 -201.5t195.5 -146.5
t267.5 -54t267 54t195.5 146.5t76 201.5h469q71 0 130.5 14.5t106 44.5t72.5 80.5t26 118.5q0 37 -15 72.5t-39.5 66.5t-53.5 64t-58 72.5t-52.5 83.5t-37.5 105t-13 131zM503 -890q-110 0 -203 35t-147 95t-54 132v4h807l1 -4q0 -72 -54 -132t-147 -95t-203 -35zM1712 -379
q0 -32 -22 -57t-54.5 -37t-64.5 -16.5t-55 -1.5h-2025q-30 0 -60.5 6t-61 18.5t-51 35.5t-23.5 54v32q1 17 28.5 51t66.5 77t78 93t67 113t29 123h1v117h-1v254q0 169 62 324.5t169.5 273.5t257 198t318.5 103v113q0 67 39.5 114.5t95 47.5t95 -47.5t39.5 -114.5v-113
q169 -23 318 -103t256 -198t169.5 -273.5t62.5 -324.5v-254h-2v-130q16 -83 49.5 -152.5t69.5 -113t70 -77.5t56 -61.5t23 -49.5v-24v0z" />
    <glyph glyph-name="yaoqing" unicode="&#xe619;" 
d="M784 265q9 9 9 22t-9 22q-78 79 -182 112q54 35 85.5 92t31.5 124q0 106 -74.5 181t-180 75t-180 -75t-74.5 -181q0 -67 32 -124t86 -92q-138 -44 -226.5 -163.5t-88.5 -269.5q0 -16 1 -38v-33q0 -13 9.5 -22.5t22.5 -9.5t22 9.5t9 22.5v34q-1 27 -1 37q0 106 52 196.5
t141.5 143t195.5 52.5q78 0 148.5 -30t125.5 -85q10 -9 23 -9t22 9zM273 637q0 80 56.5 136.5t135.5 56.5t135 -56.5t56 -136.5t-56 -136.5t-135.5 -56.5t-135.5 56.5t-56 136.5zM990 101h-116v112q0 13 -9 22.5t-22 9.5t-22.5 -9.5t-9.5 -22.5v-112h-115q-13 0 -22.5 -9
t-9.5 -22t9.5 -22.5t22.5 -9.5h115v-121q0 -13 9.5 -22.5t22.5 -9.5t22 9.5t9 22.5v121h116q13 0 22 9.5t9 22.5t-9 22t-22 9z" />
    <glyph glyph-name="huangguanline" unicode="&#xe8d1;" 
d="M851 671q-22 -4 -38.5 -20t-20.5 -38q-7 -36 16 -63q-2 -53 -40 -90.5t-91 -37.5q-52 0 -90 36t-41 87q20 14 29.5 36.5t4.5 47.5q-4 24 -21.5 41.5t-41.5 21.5q-38 8 -67.5 -16.5t-29.5 -62.5q0 -22 11 -41t30 -30q-4 -50 -41.5 -85t-89.5 -35q-53 0 -91 37t-39 90
q22 27 16 63q-4 22 -20.5 38.5t-38.5 20.5q-35 7 -62.5 -15.5t-27.5 -58.5q0 -26 16 -46t41 -26l76 -436q2 -14 13 -23t25 -9h531q14 0 25 9t13 23l76 435q25 6 41.5 26.5t16.5 46.5q0 35 -27 58t-63 16zM228 123l-9 56h570l-10 -56q-3 -14 -14 -23.5t-25 -9.5h-473
q-14 0 -25 9.5t-14 23.5zM868 556h-14l-60 -343h-581l-60 343h-13q-17 1 -28 13t-11 28q0 18 12 30t29 12t29 -12t12 -30q0 -17 -12 -29l-5 -5v-7v-3q0 -68 48 -116.5t116 -48.5t116.5 48.5t48.5 116.5v11l-11 4q-14 6 -22.5 18t-8.5 27q0 19 14 33t33.5 14t33.5 -14t14 -33
q0 -30 -26 -43l-10 -4v-11v-2q0 -68 48.5 -116.5t116.5 -48.5t116 48.5t48 116.5v3v8l-5 4q-12 13 -12 30t12.5 29t29.5 12t29 -12t12 -30q0 -16 -11.5 -28t-27.5 -13z" />
    <glyph glyph-name="huati" unicode="&#xe63d;" 
d="M513 896q-104 0 -198.5 -40.5t-163 -109t-108.5 -163t-40 -197.5q0 -128 59 -240q-59 -239 -48 -248q10 -9 217 62q128 -85 282 -85q104 0 198.5 40.5t163 109t109 163t40.5 198t-40.5 198t-109 163t-163 109t-198.5 40.5zM513 -72q-159 0 -283 98q-140 -61 -151 -57
q-11 5 52 164q-75 114 -75 252q0 93 36 178t97.5 146t146 97t177.5 36t177.5 -36t146 -97t97.5 -146t36 -178t-36 -177.5t-97.5 -145.5t-146 -97.5t-177.5 -36.5zM718 482h-61l20 72q3 11 -2.5 21t-16.5 13t-20.5 -2.5t-12.5 -16.5l-25 -87h-128l20 72q3 11 -2.5 21
t-16.5 13t-20.5 -2.5t-12.5 -16.5l-25 -87h-85q-11 0 -18 -7t-7 -18v-5q0 -10 7 -17.5t18 -7.5h70l-31 -109h-74q-12 0 -19.5 -8t-7.5 -19.5t7.5 -19.5t19.5 -8h58l-18 -65q-3 -11 2.5 -21t16 -13t20.5 2.5t13 16.5l23 80h128l-18 -65q-4 -11 2 -21t16.5 -13t20.5 2.5
t13 16.5l23 80h85q12 0 20 8t8 19.5t-8 19.5t-20 8h-70l31 109h77q11 0 18.5 7.5t7.5 17.5v5q0 11 -7.5 18t-18.5 7zM553 318h-128l31 109h128z" />
    <glyph glyph-name="shanchu" unicode="&#xe63b;" 
d="M259 -123q-43 0 -78 35t-35 78v535q0 12 7.5 20t20.5 8t20.5 -8t7.5 -20v-535q-3 -19 17.5 -38t39.5 -18h506q18 0 37.5 19t19.5 37v535q0 12 7.5 20t20.5 8t20.5 -8t7.5 -20v-535q0 -43 -35 -78t-78 -35h-506zM624.5 102q-12.5 0 -20.5 8t-8 21v394q0 12 8 20t20.5 8
t20.5 -8t8 -20v-394q0 -13 -8 -21t-20.5 -8zM399.5 102q-12.5 0 -20.5 8t-8 21v394q0 12 8 20t20.5 8t20.5 -8t8 -20v-394q0 -13 -8 -21t-20.5 -8zM33 637q-12 0 -20 8t-8 20.5t8 20.5t20 8h197v112q0 41 33 63t80 22h338q43 0 78 -35t35 -78v-84h197q12 0 20 -8t8 -20.5
t-8 -20.5t-20 -8h-958zM343 834q-18 0 -37.5 -15t-19.5 -32l1 -93h450l1 93q0 17 -19.5 32t-37.5 15h-338z" />
    <glyph glyph-name="shouyeshouye" unicode="&#xe629;" 
d="M1012 376l-498 465l-498 -464q-8 -7 -8 -17t6.5 -17t16.5 -7.5t18 6.5l465 433l465 -435q7 -6 16 -6q11 0 18 8q7 7 6.5 17t-7.5 17v0zM860 366q-10 0 -17.5 -7t-7.5 -17v-370h-193v257h-257v-257h-193v370q0 10 -7 17t-17 7t-17.5 -7t-7.5 -17v-418h290v257h161v-257
h290v418q0 10 -7 17t-17 7v0zM691 712h144v-129q0 -10 7.5 -17t17.5 -7t17 7t7 17v177h-193q-10 0 -17.5 -7t-7.5 -17t7.5 -17t17.5 -7v0zM691 712z" />
    <glyph glyph-name="artboard31" unicode="&#xe7d6;" 
d="M843 236q-72 70 -166 105l-21 8l19 12q23 15 44 35q85 84 85 202.5t-85.5 202.5t-207 84t-207.5 -84t-86 -202.5t86 -202.5q20 -20 44 -35l18 -12l-21 -8q-94 -35 -166 -105q-66 -65 -101.5 -148.5t-35.5 -175.5q0 -12 8.5 -20.5t21 -8.5t21 8.5t8.5 20.5q0 80 31 153
t89 129.5t133 87t157 30.5q83 0 157.5 -30.5t132.5 -87t89 -129.5t31 -153q0 -12 9 -20.5t21 -8.5t21 8.5t9 20.5q0 92 -35.5 175.5t-102.5 148.5zM346 437q-68 67 -68 161.5t68.5 161.5t165 67t165 -67t68.5 -161.5t-69 -161.5q-68 -66 -164 -67q-98 1 -166 67z" />
    <glyph glyph-name="hongjiuchengiconpinpai" unicode="&#xe611;" 
d="M516 -115q-102 0 -195.5 40t-161 107.5t-107.5 161t-40 195.5q0 101 38 193.5t109 163.5q98 97 227.5 131t259.5 -0.5t227 -131.5q73 -73 111 -167t38 -189.5t-38 -190t-111 -167.5q-71 -71 -163.5 -109t-193.5 -37zM516 844q-92 0 -176.5 -36t-145.5 -97t-97 -145.5
t-36 -177.5q0 -90 34.5 -173.5t98.5 -147.5q89 -87 206.5 -116.5t234.5 3t204 120.5q85 87 115 203t0 231.5t-115 202.5q-64 64 -148 98.5t-175 34.5v0zM683 393q-9 0 -14.5 6t-5.5 14v171q0 27 -22.5 46t-53.5 19h-142q-31 0 -53 -19t-22 -46v-171q0 -9 -6 -14.5t-14 -5.5
q-9 0 -15 6t-6 14v171q0 43 34 74.5t82 31.5h142q48 0 82 -31.5t34 -74.5v-171q0 -9 -5.5 -14.5t-14.5 -5.5zM628 88q-9 0 -16 5l-96 66l-95 -66q-3 -3 -8 -3l-1 -0.5t-2 -0.5h-5h-6q-2 0 -3 1q-4 1 -8 4q-16 12 -11 31l34 109l-92 69q-10 8 -11.5 19t5.5 21q9 11 23 11
l117 2l38 109q4 11 14.5 16t21.5 1q12 -6 17 -17l37 -109l117 -2q12 0 19.5 -8t7.5 -20q0 -14 -11 -23l-93 -69l34 -110q3 -11 -2.5 -21.5t-16.5 -13.5q-2 -1 -8 -1v0v0zM618 129l-36 118l99 74l-124 3l-41 116l-41 -116l-124 -3l98 -74l-35 -118l102 70z" />
    <glyph glyph-name="jianyi" unicode="&#xe61a;" 
d="M317 483h390v-48h-390v48zM370 358h284v-48h-284v48zM772 613h-520q-25 0 -42.5 -17.5t-17.5 -42.5v-317q0 -25 17.5 -42.5t42.5 -17.5h171l72 -94q6 -9 17 -9t17 9l72 94h171q22 0 39 14q21 18 21 46v317q0 25 -17.5 42.5t-42.5 17.5zM785 236q0 -8 -7 -14q-5 -5 -12 -5
h-177q-10 0 -15 -9l-60 -83l-60 83q-5 9 -16 9h-180q-8 0 -14 5.5t-6 13.5v313q0 8 6 13.5t14 5.5h508q8 0 14 -5.5t6 -13.5zM512 888q-102 0 -195.5 -40t-161 -107.5t-107.5 -160.5t-40 -195.5t40 -195.5t107.5 -160.5t161 -107.5t195.5 -40t195.5 40t161 107.5
t107.5 160.5t40 195.5t-40 195.5t-107.5 160.5t-161 107.5t-195.5 40zM512 -74q-93 0 -178 36.5t-146.5 97.5t-98 146t-36.5 178.5t36.5 178.5t98 146t146.5 97.5t178 36.5t178 -36.5t146.5 -97.5t98 -146t36.5 -178.5t-36.5 -178.5t-98 -146t-146.5 -97.5t-178 -36.5z" />
    <glyph glyph-name="daijinquan" unicode="&#xe61b;" horiz-adv-x="1391" 
d="M1246 -127l-1101 -1q-29 0 -56 11q-26 10 -45.5 29.5t-30.5 44.5t-11 53l-1 222q0 17 12 28.5t29 11.5q47 0 81 32q34 33 34 79.5t-34 79t-81 32.5q-17 0 -29 11.5t-12 27.5v222q0 28 11 54q11 25 30 44q20 19 46 30t56 11l1101 1q29 0 56 -11q25 -10 45 -30
q20 -19 31 -43q11 -26 11 -54l1 -222q0 -17 -12 -28.5t-29 -11.5q-48 0 -81 -32q-34 -33 -34 -79t34 -79t81 -33q17 0 29 -11.5t12 -27.5v-222q0 -28 -11 -54q-11 -25 -30 -44q-20 -19 -46 -30q-27 -11 -56 -11v0zM83 197v-187q0 -24 18 -41.5t44 -17.5l1101 1q26 0 44 17.5
t18 42.5l-1 187q-19 4 -35 10q-36 15 -63 41.5t-42 60.5q-16 35 -16 74q0 38 16 74q15 34 42 60t62 41q18 7 36 11v187q0 24 -18 41.5t-44 17.5l-1101 -1q-26 0 -44 -17.5t-18 -42.5l1 -187q17 -3 35 -10q35 -15 63 -41q27 -27 42 -61q15 -35 15.5 -73.5t-15.5 -74.5
q-15 -34 -42 -60.5t-62 -40.5q-18 -7 -36 -11v0zM906 602l-147 -171h160l1 -39h-190v-97h190v-39h-190v-128h-67v128l-189 -1v40h189v97l-189 -1v40h160l-148 171h77l133 -165l134 165h76v0v0z" />
    <glyph glyph-name="jijin" unicode="&#xe61c;" 
d="M721 665q10 19 10 25q-3 25 -29 29q-26 0 -39 -22l-149 -216l-149 216q-13 22 -39 22q-26 -3 -29 -28q3 -14 10 -26q3 -3 3 -6l133 -197h-78q-36 0 -36 -28q3 -22 36 -25h113v-57h-113q-36 0 -36 -28q3 -22 36 -25h113v-125q0 -31 36 -31t36 31v125h113q32 3 36 25
q0 28 -36 28h-113v56h113q33 4 36 25q0 29 -36 29h-78l133 197q0 3 3 6zM960 274l-84 -8q-15 -2 -20 -15q-6 -12 2 -24l9 -11l-368 -264l-99 119q-8 9 -20 10.5t-22 -5.5q-98 -71 -113 -80q-9 -5 -13.5 -15t-0.5 -20q4 -11 15 -16.5t23 -1.5q8 2 102 69l99 -118
q9 -11 23 -11q10 0 18 6l391 281l6 -8q8 -10 20 -10h3q14 2 20 14l34 75q6 13 -2 24q-9 11 -23 9v0zM514 894q-103 0 -196.5 -38.5t-161 -104t-108 -156t-40.5 -189.5q0 -98 38.5 -187t109.5 -159q9 -8 21.5 -8t21.5 8.5t9 20.5t-9 20q-63 61 -97 140t-34 165
q0 116 60 215.5t162.5 157t223.5 57.5t223.5 -57.5t162 -157t59.5 -215.5q0 -12 9 -20.5t21.5 -8.5t21.5 8.5t9 20.5q0 99 -40.5 189.5t-108 156t-161 104t-196.5 38.5z" />
    <glyph glyph-name="aixin" unicode="&#xe65b;" 
d="M717 800q-71 -13 -119 -45l-34 -28l-53 -53q-17 13 -40.5 35t-40 36t-41 28.5t-56 21.5t-71.5 6l-60 -9q-84 -26 -129 -82q-30 -39 -45 -76q-13 -33 -16.5 -64.5t-1.5 -56.5t14 -52t22 -45t30 -42.5t32 -36.5l34 -34l9 -9l132 -130l162 -161q4 -3 14 -13t16.5 -14
t19 -7.5t27.5 -0.5q23 4 47 22.5t56.5 55.5t35.5 39l191 190q10 9 35.5 33.5t37.5 37.5t30 35t29.5 45.5t19.5 49.5q17 64 -1 129t-59.5 111t-102.5 70.5t-124 13.5zM934 441q-20 -34 -76 -87q-16 -16 -24 -23l-192 -190q-3 -3 -16 -18q-55 -57 -79.5 -79t-35.5 -22h-1
q-17 0 -45 34q-7 8 -9 11l-134 131l-153 152l-18 18q-54 51 -69 86q-24 63 -12 125t47 101q43 45 102 62v0l43 7h1q29 0 52.5 -6t35 -11.5t31.5 -17.5q21 -13 34 -19l1 -1l95 -95q17 15 49 50q55 59 92 78q46 23 94 23q72 0 131 -47.5t76 -119.5q8 -40 1.5 -78t-21.5 -64z
" />
  </font>
</defs>
</svg>
